<?xml version="1.0" standalone="no"?>
<!DOCTYPE svg PUBLIC "-//W3C//DTD SVG 20010904//EN"
 "http://www.w3.org/TR/2001/REC-SVG-20010904/DTD/svg10.dtd">
<svg version="1.0" xmlns="http://www.w3.org/2000/svg"
 width="542.000000pt" height="532.000000pt" viewBox="0 0 542.000000 532.000000"
 preserveAspectRatio="xMidYMid meet">

<g transform="translate(0.000000,532.000000) scale(0.100000,-0.100000)"
fill="#000000" stroke="none">
<path d="M2305 4824 c-51 -19 -111 -78 -126 -123 -17 -51 -14 -131 6 -171 20
-39 44 -70 56 -70 4 0 32 35 62 78 58 82 119 143 193 189 24 16 44 33 44 38 0
12 -55 50 -93 64 -38 15 -94 13 -142 -5z"/>
<path d="M3303 4740 c-24 -10 -43 -24 -43 -30 0 -7 16 -30 36 -53 43 -51 97
-157 115 -226 7 -28 17 -51 21 -51 26 0 92 46 114 80 50 75 42 168 -19 237
-57 64 -142 81 -224 43z"/>
<path d="M2994 4455 c-29 -71 -5 -147 66 -207 104 -90 274 -123 295 -58 9 29
-5 48 -121 155 -135 126 -161 145 -196 145 -24 0 -32 -7 -44 -35z"/>
<path d="M2603 4460 c-40 -24 -273 -251 -273 -266 0 -58 105 -67 210 -18 36
17 83 49 105 70 57 56 81 145 54 197 -23 42 -48 47 -96 17z"/>
<path d="M2696 4205 c-11 -12 -13 -22 -5 -44 14 -38 74 -108 110 -127 28 -14
38 -37 20 -48 -4 -3 -63 5 -131 18 -124 24 -160 24 -160 1 0 -23 87 -91 172
-134 102 -52 171 -62 248 -36 75 25 121 16 213 -41 64 -39 75 -49 59 -55 -46
-17 -340 -29 -466 -19 -360 30 -541 132 -563 320 -3 27 -10 50 -16 50 -5 0
-40 -19 -76 -41 -269 -169 -446 -363 -512 -564 -19 -55 -24 -92 -24 -175 0
-185 63 -331 211 -490 l32 -35 5 -305 c5 -358 10 -386 86 -461 86 -87 50 -83
901 -87 647 -2 754 -1 815 13 93 21 143 51 182 108 52 78 57 124 58 517 l0
355 -520 0 -520 0 -3 -142 -3 -143 328 -2 328 -3 3 -192 2 -193 -630 0 -630 0
0 180 0 180 28 0 c67 0 136 31 188 84 81 83 105 191 67 302 -21 64 -133 177
-220 222 -63 33 -63 33 -63 78 l0 44 654 0 654 0 6 -26 c4 -15 33 -53 65 -85
70 -70 137 -94 236 -87 124 10 205 83 239 217 l12 44 94 24 c67 18 122 25 187
25 51 0 91 4 88 8 -9 14 -96 51 -144 60 -61 11 -121 -2 -176 -40 l-43 -29 -6
62 c-20 189 -120 358 -228 387 -24 7 -75 10 -116 8 -62 -4 -88 -13 -187 -61
-63 -31 -115 -60 -115 -64 0 -4 29 -25 65 -46 61 -36 64 -39 53 -62 -9 -20
-19 -25 -49 -25 -29 0 -83 26 -258 128 -121 70 -221 133 -221 139 0 7 12 20
26 30 22 14 32 15 67 5 36 -9 44 -9 55 5 6 9 12 20 12 25 0 17 -56 20 -166 10
-155 -15 -177 -6 -102 45 83 56 137 160 92 177 -9 3 -78 6 -154 6 -110 0 -142
-3 -154 -15z"/>
<path d="M4120 3325 c0 -7 21 -36 48 -63 44 -45 56 -51 182 -91 74 -24 152
-49 174 -57 21 -8 41 -12 44 -9 3 3 3 6 1 8 -144 115 -267 190 -339 206 -92
20 -110 21 -110 6z"/>
<path d="M958 1631 c-190 -3 -349 -9 -353 -13 -3 -3 33 -10 82 -15 124 -11
4175 -10 4288 2 l90 9 -60 8 c-75 10 -3572 18 -4047 9z"/>
<path d="M712 1288 c-8 -8 -12 -54 -12 -139 0 -103 3 -131 16 -143 13 -13 44
-16 178 -16 197 0 196 -1 196 108 l0 72 -100 0 -100 0 0 -25 c0 -24 3 -25 60
-25 l60 0 0 -35 0 -35 -115 0 -115 0 0 95 0 95 111 0 c84 0 115 -3 123 -14 7
-9 22 -12 44 -9 25 4 32 10 32 28 0 50 -18 55 -199 55 -116 0 -171 -4 -179
-12z"/>
<path d="M1285 1168 c-43 -73 -85 -143 -93 -155 -14 -23 -13 -23 26 -23 35 0
43 4 61 35 l20 35 104 0 103 0 17 -35 c15 -32 20 -35 62 -35 l46 0 -23 38
c-13 21 -54 91 -93 155 l-70 117 -41 0 -41 0 -78 -132z m153 10 l32 -58 -70 0
-69 0 21 38 c34 60 49 84 52 80 1 -1 17 -29 34 -60z"/>
<path d="M1736 1284 c-20 -20 -21 -113 -2 -140 13 -17 31 -20 143 -24 l128 -5
3 -32 3 -33 -115 0 c-99 0 -116 2 -116 16 0 11 -8 14 -32 12 -27 -2 -34 -8
-36 -29 -6 -53 14 -59 183 -59 154 0 155 0 171 25 19 29 16 127 -5 148 -7 8
-59 14 -139 17 l-127 5 0 30 0 30 103 3 c95 2 104 1 109 -17 7 -27 57 -13 61
18 7 46 -10 51 -169 51 -121 0 -150 -3 -163 -16z"/>
<path d="M2173 1284 c-9 -25 8 -33 82 -36 l70 -3 3 -127 3 -128 34 0 34 0 3
128 3 127 78 3 c74 3 77 4 77 27 l0 25 -190 0 c-164 0 -191 -2 -197 -16z"/>
<path d="M2660 1145 l0 -155 40 0 40 0 0 60 0 60 33 0 c26 0 46 -13 99 -61 66
-59 68 -60 120 -57 l53 3 -62 49 c-35 27 -63 53 -63 58 0 4 15 8 33 8 50 0 67
25 67 98 0 92 -1 92 -196 92 l-164 0 0 -155z m278 93 c7 -7 12 -21 12 -33 0
-38 -19 -45 -117 -45 l-93 0 0 45 0 45 93 0 c59 0 97 -4 105 -12z"/>
<path d="M3159 1283 c-10 -12 -14 -50 -14 -140 0 -112 2 -126 19 -139 30 -22
348 -20 370 2 13 12 16 40 16 135 0 66 -5 129 -10 140 -10 18 -23 19 -189 19
-154 0 -180 -2 -192 -17z m311 -138 l0 -95 -125 0 -125 0 0 95 0 95 125 0 125
0 0 -95z"/>
<path d="M3690 1145 l0 -155 35 0 35 0 0 100 c0 55 3 100 6 100 3 0 63 -45
132 -100 91 -71 135 -100 155 -100 l27 0 0 155 0 155 -35 0 -34 0 -3 -100 -3
-100 -127 100 c-98 76 -135 100 -158 100 l-30 0 0 -155z"/>
<path d="M4230 1281 c-5 -11 -10 -71 -10 -133 0 -166 -10 -158 205 -158 215 0
205 -7 205 155 0 163 11 155 -210 155 -167 0 -180 -1 -190 -19z m320 -136 l0
-95 -125 0 -125 0 0 95 0 95 125 0 125 0 0 -95z"/>
<path d="M4730 1275 c0 -23 3 -24 73 -27 l72 -3 3 -127 3 -128 34 0 34 0 3
128 3 127 78 3 c74 3 77 4 77 27 l0 25 -190 0 -190 0 0 -25z"/>
<path d="M1827 703 c-4 -3 -7 -76 -7 -160 l0 -154 33 3 32 3 5 98 5 99 65 -81
c36 -45 70 -80 77 -79 6 2 41 41 77 87 l66 84 0 -106 0 -107 35 0 35 0 0 160
0 160 -28 0 c-24 0 -41 -15 -101 -90 -40 -49 -77 -90 -82 -90 -4 0 -41 40 -81
90 -57 70 -79 90 -99 90 -14 0 -29 -3 -32 -7z"/>
<path d="M2400 550 l0 -160 170 0 170 0 0 30 0 30 -130 0 -130 0 0 40 0 40 75
0 c73 0 75 1 75 25 0 24 -2 25 -75 25 l-75 0 0 35 0 35 130 0 130 0 0 30 0 30
-170 0 -170 0 0 -160z"/>
<path d="M2860 550 l0 -162 143 4 c119 3 148 7 181 24 48 24 76 74 76 132 0
62 -24 105 -73 133 -38 21 -57 24 -184 27 l-143 4 0 -162z m267 90 c34 -12 53
-45 53 -91 0 -71 -47 -99 -165 -99 l-75 0 0 100 0 100 79 0 c43 0 92 -5 108
-10z"/>
<path d="M3387 703 c-4 -3 -7 -75 -7 -160 l0 -153 40 0 40 0 0 160 0 160 -33
0 c-19 0 -37 -3 -40 -7z"/>
<path d="M3736 688 c-23 -37 -153 -254 -165 -277 -11 -20 -9 -21 29 -21 36 0
42 4 57 35 l17 35 106 0 106 0 17 -35 c15 -32 20 -35 62 -35 26 0 44 3 42 8
-2 4 -46 76 -97 160 -89 148 -93 152 -126 152 -24 0 -38 -6 -48 -22z m82 -108
l33 -60 -65 0 c-36 0 -66 3 -66 7 0 11 54 113 60 113 3 0 20 -27 38 -60z"/>
</g>
</svg>
